<mxfile host="Electron" agent="Mozilla/5.0 (Macintosh; Intel Mac OS X 10_15_7) AppleWebKit/537.36 (KHTML, like Gecko) draw.io/26.0.9 Chrome/128.0.6613.186 Electron/32.2.5 Safari/537.36" version="26.0.9" pages="3">
  <diagram id="R2lEEEUBdFMjLlhIrx00" name="LogicalDataStructure">
    <mxGraphModel dx="1026" dy="659" grid="1" gridSize="10" guides="1" tooltips="1" connect="1" arrows="1" fold="1" page="1" pageScale="1" pageWidth="850" pageHeight="1100" math="0" shadow="0" extFonts="Permanent Marker^https://fonts.googleapis.com/css?family=Permanent+Marker">
      <root>
        <mxCell id="0" />
        <mxCell id="1" parent="0" />
        <mxCell id="ubTuvXWRGH87ilY97eoY-1" value="Action" style="swimlane;childLayout=stackLayout;horizontal=1;startSize=50;horizontalStack=0;rounded=1;fontSize=14;fontStyle=0;strokeWidth=1;resizeParent=0;resizeLast=1;shadow=1;dashed=0;align=center;arcSize=4;whiteSpace=wrap;html=1;swimlaneFillColor=default;glass=0;" vertex="1" parent="1">
          <mxGeometry x="130" y="140" width="160" height="120" as="geometry" />
        </mxCell>
        <mxCell id="ubTuvXWRGH87ilY97eoY-5" style="edgeStyle=orthogonalEdgeStyle;rounded=0;orthogonalLoop=1;jettySize=auto;html=1;endArrow=ERmany;endFill=0;endSize=14;startSize=14;shadow=1;" edge="1" parent="1" source="ubTuvXWRGH87ilY97eoY-3" target="ubTuvXWRGH87ilY97eoY-1">
          <mxGeometry relative="1" as="geometry">
            <Array as="points">
              <mxPoint x="400" y="230" />
              <mxPoint x="400" y="230" />
            </Array>
          </mxGeometry>
        </mxCell>
        <mxCell id="cwLecDGM-_Zdk8WisEIj-1" value="child actions" style="edgeLabel;html=1;align=center;verticalAlign=middle;resizable=0;points=[];labelBackgroundColor=none;" vertex="1" connectable="0" parent="ubTuvXWRGH87ilY97eoY-5">
          <mxGeometry x="-0.0533" y="1" relative="1" as="geometry">
            <mxPoint x="92" y="9" as="offset" />
          </mxGeometry>
        </mxCell>
        <mxCell id="cwLecDGM-_Zdk8WisEIj-2" value="begining state" style="edgeLabel;html=1;align=center;verticalAlign=middle;resizable=0;points=[];labelBackgroundColor=none;" vertex="1" connectable="0" parent="ubTuvXWRGH87ilY97eoY-5">
          <mxGeometry x="0.6267" y="3" relative="1" as="geometry">
            <mxPoint x="14" y="-13" as="offset" />
          </mxGeometry>
        </mxCell>
        <mxCell id="cwLecDGM-_Zdk8WisEIj-3" style="edgeStyle=orthogonalEdgeStyle;rounded=0;orthogonalLoop=1;jettySize=auto;html=1;startArrow=none;startFill=0;endArrow=none;shadow=1;" edge="1" parent="1" source="ubTuvXWRGH87ilY97eoY-3" target="ubTuvXWRGH87ilY97eoY-1">
          <mxGeometry relative="1" as="geometry">
            <Array as="points">
              <mxPoint x="440" y="170" />
              <mxPoint x="440" y="170" />
            </Array>
          </mxGeometry>
        </mxCell>
        <mxCell id="cwLecDGM-_Zdk8WisEIj-4" value="parent action" style="edgeLabel;html=1;align=center;verticalAlign=middle;resizable=0;points=[];labelBackgroundColor=none;" vertex="1" connectable="0" parent="cwLecDGM-_Zdk8WisEIj-3">
          <mxGeometry x="-0.6667" y="1" relative="1" as="geometry">
            <mxPoint y="9" as="offset" />
          </mxGeometry>
        </mxCell>
        <mxCell id="cwLecDGM-_Zdk8WisEIj-5" value="end state" style="edgeLabel;html=1;align=center;verticalAlign=middle;resizable=0;points=[];labelBackgroundColor=none;labelBorderColor=none;textShadow=0;" vertex="1" connectable="0" parent="cwLecDGM-_Zdk8WisEIj-3">
          <mxGeometry x="0.7267" y="2" relative="1" as="geometry">
            <mxPoint x="19" y="-12" as="offset" />
          </mxGeometry>
        </mxCell>
        <mxCell id="ubTuvXWRGH87ilY97eoY-3" value="Node" style="swimlane;childLayout=stackLayout;horizontal=1;startSize=50;horizontalStack=0;rounded=1;fontSize=14;fontStyle=0;strokeWidth=1;resizeParent=0;resizeLast=1;shadow=1;dashed=0;align=center;arcSize=4;whiteSpace=wrap;html=1;swimlaneFillColor=default;gradientColor=none;swimlaneLine=1;" vertex="1" parent="1">
          <mxGeometry x="590" y="140" width="160" height="140" as="geometry" />
        </mxCell>
        <mxCell id="5IH6YsG1Oc7byzQX8D9E-1" value="State &lt;i style=&quot;&quot;&gt;s&lt;/i&gt;" style="text;strokeColor=none;fillColor=none;spacingLeft=4;spacingRight=4;overflow=hidden;rotatable=0;points=[[0,0.5],[1,0.5]];portConstraint=eastwest;fontSize=12;whiteSpace=wrap;html=1;" vertex="1" parent="ubTuvXWRGH87ilY97eoY-3">
          <mxGeometry y="50" width="160" height="30" as="geometry" />
        </mxCell>
        <mxCell id="IydcawHgKFYkVL43jPj4-4" value="Visit Count &lt;i&gt;n&lt;sub&gt;s&lt;/sub&gt;&lt;/i&gt;" style="text;strokeColor=none;fillColor=none;spacingLeft=4;spacingRight=4;overflow=hidden;rotatable=0;points=[[0,0.5],[1,0.5]];portConstraint=eastwest;fontSize=12;whiteSpace=wrap;html=1;" vertex="1" parent="ubTuvXWRGH87ilY97eoY-3">
          <mxGeometry y="80" width="160" height="30" as="geometry" />
        </mxCell>
        <mxCell id="IydcawHgKFYkVL43jPj4-3" value="Total Reward &lt;i&gt;t&lt;sub&gt;s&lt;/sub&gt;&lt;/i&gt;" style="text;strokeColor=none;fillColor=none;spacingLeft=4;spacingRight=4;overflow=hidden;rotatable=0;points=[[0,0.5],[1,0.5]];portConstraint=eastwest;fontSize=12;whiteSpace=wrap;html=1;" vertex="1" parent="ubTuvXWRGH87ilY97eoY-3">
          <mxGeometry y="110" width="160" height="30" as="geometry" />
        </mxCell>
      </root>
    </mxGraphModel>
  </diagram>
  <diagram id="V1I6rFavuJKQ2xMt1gDR" name="TreeTaversalStage">
    <mxGraphModel dx="1026" dy="659" grid="1" gridSize="10" guides="1" tooltips="1" connect="1" arrows="1" fold="1" page="1" pageScale="1" pageWidth="850" pageHeight="1100" math="0" shadow="0">
      <root>
        <mxCell id="0" />
        <mxCell id="1" parent="0" />
        <mxCell id="byWN9ve8sOWV0pg4FfrP-3" style="rounded=0;orthogonalLoop=1;jettySize=auto;html=1;endArrow=open;endFill=0;endSize=14;startSize=14;" edge="1" parent="1" source="G38sDP1veM84M0cREy4_-3" target="G38sDP1veM84M0cREy4_-11">
          <mxGeometry relative="1" as="geometry">
            <mxPoint x="390" y="160" as="sourcePoint" />
            <mxPoint x="307.1428571428571" y="240" as="targetPoint" />
          </mxGeometry>
        </mxCell>
        <mxCell id="G38sDP1veM84M0cREy4_-1" value="a&lt;sub&gt;1&lt;/sub&gt;" style="edgeLabel;html=1;align=center;verticalAlign=middle;resizable=0;points=[];" vertex="1" connectable="0" parent="byWN9ve8sOWV0pg4FfrP-3">
          <mxGeometry x="-0.15" relative="1" as="geometry">
            <mxPoint x="-16" as="offset" />
          </mxGeometry>
        </mxCell>
        <mxCell id="byWN9ve8sOWV0pg4FfrP-5" style="rounded=0;orthogonalLoop=1;jettySize=auto;html=1;endArrow=open;endFill=0;endSize=14;startSize=14;" edge="1" parent="1" source="G38sDP1veM84M0cREy4_-3" target="G38sDP1veM84M0cREy4_-14">
          <mxGeometry relative="1" as="geometry">
            <mxPoint x="426.66666666666674" y="160" as="sourcePoint" />
            <mxPoint x="495.7142857142858" y="240" as="targetPoint" />
          </mxGeometry>
        </mxCell>
        <mxCell id="G38sDP1veM84M0cREy4_-2" value="a&lt;sub&gt;2&lt;/sub&gt;" style="edgeLabel;html=1;align=center;verticalAlign=middle;resizable=0;points=[];" vertex="1" connectable="0" parent="byWN9ve8sOWV0pg4FfrP-5">
          <mxGeometry x="-0.0615" y="4" relative="1" as="geometry">
            <mxPoint x="9" as="offset" />
          </mxGeometry>
        </mxCell>
        <mxCell id="G38sDP1veM84M0cREy4_-5" value="" style="group" vertex="1" connectable="0" parent="1">
          <mxGeometry x="350" y="80" width="100" height="80" as="geometry" />
        </mxCell>
        <mxCell id="G38sDP1veM84M0cREy4_-3" value="State S&lt;sub&gt;0&lt;/sub&gt;" style="shape=folder;align=center;verticalAlign=middle;fontStyle=0;tabWidth=100;tabHeight=30;tabPosition=left;html=1;boundedLbl=1;labelInHeader=1;rounded=1;absoluteArcSize=1;arcSize=10;whiteSpace=wrap;" vertex="1" parent="G38sDP1veM84M0cREy4_-5">
          <mxGeometry width="100" height="80" as="geometry" />
        </mxCell>
        <mxCell id="G38sDP1veM84M0cREy4_-4" value="&lt;div&gt;t&lt;sub&gt;0 &lt;/sub&gt;= 0&lt;/div&gt;&lt;div&gt;&lt;span style=&quot;background-color: transparent; color: light-dark(rgb(0, 0, 0), rgb(255, 255, 255));&quot;&gt;&lt;span style=&quot;font-size: 10px;&quot;&gt;n&lt;/span&gt;&lt;sub&gt;0 &lt;/sub&gt;= 0&lt;/span&gt;&lt;/div&gt;" style="text;html=1;align=center;verticalAlign=middle;whiteSpace=wrap;rounded=0;" vertex="1" parent="G38sDP1veM84M0cREy4_-5">
          <mxGeometry x="20" y="40" width="60" height="30" as="geometry" />
        </mxCell>
        <mxCell id="G38sDP1veM84M0cREy4_-10" value="" style="group" vertex="1" connectable="0" parent="1">
          <mxGeometry x="230" y="240" width="100" height="80" as="geometry" />
        </mxCell>
        <mxCell id="G38sDP1veM84M0cREy4_-11" value="State S&lt;sub&gt;0&lt;/sub&gt;" style="shape=folder;align=center;verticalAlign=middle;fontStyle=0;tabWidth=100;tabHeight=30;tabPosition=left;html=1;boundedLbl=1;labelInHeader=1;rounded=1;absoluteArcSize=1;arcSize=10;whiteSpace=wrap;" vertex="1" parent="G38sDP1veM84M0cREy4_-10">
          <mxGeometry width="100" height="80" as="geometry" />
        </mxCell>
        <mxCell id="G38sDP1veM84M0cREy4_-12" value="&lt;div&gt;t&lt;sub&gt;0 &lt;/sub&gt;= 0&lt;/div&gt;&lt;div&gt;&lt;span style=&quot;background-color: transparent; color: light-dark(rgb(0, 0, 0), rgb(255, 255, 255));&quot;&gt;&lt;span style=&quot;font-size: 10px;&quot;&gt;n&lt;/span&gt;&lt;sub&gt;0 &lt;/sub&gt;= 0&lt;/span&gt;&lt;/div&gt;" style="text;html=1;align=center;verticalAlign=middle;whiteSpace=wrap;rounded=0;" vertex="1" parent="G38sDP1veM84M0cREy4_-10">
          <mxGeometry x="20" y="40" width="60" height="30" as="geometry" />
        </mxCell>
        <mxCell id="G38sDP1veM84M0cREy4_-13" value="" style="group" vertex="1" connectable="0" parent="1">
          <mxGeometry x="470" y="240" width="100" height="80" as="geometry" />
        </mxCell>
        <mxCell id="G38sDP1veM84M0cREy4_-14" value="State S&lt;sub&gt;0&lt;/sub&gt;" style="shape=folder;align=center;verticalAlign=middle;fontStyle=0;tabWidth=100;tabHeight=30;tabPosition=left;html=1;boundedLbl=1;labelInHeader=1;rounded=1;absoluteArcSize=1;arcSize=10;whiteSpace=wrap;" vertex="1" parent="G38sDP1veM84M0cREy4_-13">
          <mxGeometry width="100" height="80" as="geometry" />
        </mxCell>
        <mxCell id="G38sDP1veM84M0cREy4_-15" value="&lt;div&gt;t&lt;sub&gt;0 &lt;/sub&gt;= 0&lt;/div&gt;&lt;div&gt;&lt;span style=&quot;background-color: transparent; color: light-dark(rgb(0, 0, 0), rgb(255, 255, 255));&quot;&gt;&lt;span style=&quot;font-size: 10px;&quot;&gt;n&lt;/span&gt;&lt;sub&gt;0 &lt;/sub&gt;= 0&lt;/span&gt;&lt;/div&gt;" style="text;html=1;align=center;verticalAlign=middle;whiteSpace=wrap;rounded=0;" vertex="1" parent="G38sDP1veM84M0cREy4_-13">
          <mxGeometry x="20" y="40" width="60" height="30" as="geometry" />
        </mxCell>
      </root>
    </mxGraphModel>
  </diagram>
  <diagram id="70wLdCz9XgdL7Km-1hSi" name="Algorithm">
    <mxGraphModel dx="1026" dy="659" grid="1" gridSize="10" guides="1" tooltips="1" connect="1" arrows="1" fold="1" page="1" pageScale="1" pageWidth="850" pageHeight="1100" math="0" shadow="0">
      <root>
        <mxCell id="0" />
        <mxCell id="1" parent="0" />
        <mxCell id="WhOPVjGFQnV452_eeHkL-1" value="" style="ellipse;fillColor=strokeColor;html=1;" vertex="1" parent="1">
          <mxGeometry x="150" y="70" width="30" height="30" as="geometry" />
        </mxCell>
        <mxCell id="WhOPVjGFQnV452_eeHkL-2" value="Current Node = S&lt;sub&gt;0&lt;/sub&gt;" style="rounded=1;whiteSpace=wrap;html=1;arcSize=40;fontColor=#000000;fillColor=#ffffc0;strokeColor=#ff0000;" vertex="1" parent="1">
          <mxGeometry x="105" y="160" width="120" height="40" as="geometry" />
        </mxCell>
        <mxCell id="WhOPVjGFQnV452_eeHkL-3" value="" style="edgeStyle=orthogonalEdgeStyle;html=1;verticalAlign=bottom;endArrow=open;endSize=8;strokeColor=#ff0000;rounded=0;" edge="1" source="WhOPVjGFQnV452_eeHkL-2" parent="1" target="WhOPVjGFQnV452_eeHkL-5">
          <mxGeometry relative="1" as="geometry">
            <mxPoint x="170" y="260" as="targetPoint" />
          </mxGeometry>
        </mxCell>
        <mxCell id="WhOPVjGFQnV452_eeHkL-4" value="" style="edgeStyle=orthogonalEdgeStyle;html=1;verticalAlign=bottom;endArrow=open;endSize=8;strokeColor=#ff0000;rounded=0;" edge="1" parent="1" source="WhOPVjGFQnV452_eeHkL-1" target="WhOPVjGFQnV452_eeHkL-2">
          <mxGeometry relative="1" as="geometry">
            <mxPoint x="180" y="180" as="targetPoint" />
            <mxPoint x="180" y="210" as="sourcePoint" />
          </mxGeometry>
        </mxCell>
        <mxCell id="WhOPVjGFQnV452_eeHkL-5" value="Is Current a Leaf Node" style="rhombus;whiteSpace=wrap;html=1;fontColor=#000000;fillColor=#ffffc0;strokeColor=#ff0000;" vertex="1" parent="1">
          <mxGeometry x="103.75" y="250" width="122.5" height="100" as="geometry" />
        </mxCell>
        <mxCell id="WhOPVjGFQnV452_eeHkL-6" value="no" style="edgeStyle=orthogonalEdgeStyle;html=1;align=left;verticalAlign=bottom;endArrow=open;endSize=8;strokeColor=#ff0000;rounded=0;" edge="1" source="WhOPVjGFQnV452_eeHkL-5" parent="1" target="WhOPVjGFQnV452_eeHkL-18">
          <mxGeometry x="-1" relative="1" as="geometry">
            <mxPoint x="320" y="300" as="targetPoint" />
          </mxGeometry>
        </mxCell>
        <mxCell id="WhOPVjGFQnV452_eeHkL-7" value="yes" style="edgeStyle=orthogonalEdgeStyle;html=1;align=left;verticalAlign=top;endArrow=open;endSize=8;strokeColor=#ff0000;rounded=0;" edge="1" source="WhOPVjGFQnV452_eeHkL-5" parent="1" target="WhOPVjGFQnV452_eeHkL-8">
          <mxGeometry x="-1" relative="1" as="geometry">
            <mxPoint x="165" y="410" as="targetPoint" />
          </mxGeometry>
        </mxCell>
        <mxCell id="WhOPVjGFQnV452_eeHkL-8" value="Set the current node to the child node of current that maximizes UCB1(S&lt;sub&gt;i&lt;/sub&gt;)" style="rounded=1;whiteSpace=wrap;html=1;arcSize=40;fontColor=#000000;fillColor=#ffffc0;strokeColor=#ff0000;" vertex="1" parent="1">
          <mxGeometry x="57.5" y="420" width="215" height="40" as="geometry" />
        </mxCell>
        <mxCell id="WhOPVjGFQnV452_eeHkL-9" value="" style="edgeStyle=orthogonalEdgeStyle;html=1;verticalAlign=bottom;endArrow=open;endSize=8;strokeColor=#ff0000;rounded=0;" edge="1" source="WhOPVjGFQnV452_eeHkL-8" parent="1" target="WhOPVjGFQnV452_eeHkL-5">
          <mxGeometry relative="1" as="geometry">
            <mxPoint x="165" y="540" as="targetPoint" />
            <Array as="points">
              <mxPoint x="50" y="440" />
              <mxPoint x="50" y="300" />
            </Array>
          </mxGeometry>
        </mxCell>
        <mxCell id="WhOPVjGFQnV452_eeHkL-10" value="Adapted from John Levine&#39;s Video:&lt;div&gt;&lt;a href=&quot;https://youtu.be/UXW2yZndl7U?si=IxLlz5HN0e_wkS7u&quot;&gt;Monte Carlo Tree Search&lt;/a&gt;&lt;/div&gt;" style="shape=note2;boundedLbl=1;whiteSpace=wrap;html=1;size=25;verticalAlign=top;align=center;" vertex="1" parent="1">
          <mxGeometry x="272.5" y="10" width="210" height="95" as="geometry" />
        </mxCell>
        <mxCell id="WhOPVjGFQnV452_eeHkL-13" value="" style="group" vertex="1" connectable="0" parent="1">
          <mxGeometry x="30" y="510" width="260.25" height="110" as="geometry" />
        </mxCell>
        <mxCell id="WhOPVjGFQnV452_eeHkL-11" value="" style="shape=note2;boundedLbl=1;whiteSpace=wrap;html=1;size=25;verticalAlign=top;align=center;" vertex="1" parent="WhOPVjGFQnV452_eeHkL-13">
          <mxGeometry x="20.13" y="-20" width="220" height="110" as="geometry" />
        </mxCell>
        <mxCell id="WhOPVjGFQnV452_eeHkL-12" value="" style="shape=image;verticalLabelPosition=bottom;labelBackgroundColor=default;verticalAlign=top;aspect=fixed;imageAspect=0;image=data:image/png,iVBORw0KGgoAAAANSUhEUgAAAngAAACgCAYAAACfZRFRAAAMSmlDQ1BJQ0MgUHJvZmlsZQAASImVVwdYU8kWnltSIQQIREBK6E0QkRJASggtgPQiiEpIAoQSY0JQsaOLCq5dRLCiqyCKHRCxYVcWxe5aFgsqK+tiwa68CQF02Ve+d75v7v3vP2f+OefcuWUAoLfzpdIcVBOAXEmeLCbYnzUuKZlF6gQoIAMEeAKUL5BLOVFR4QDawPnv9u4m9IR2zUGp9c/+/2paQpFcAAASBXGaUC7IhfggAHiTQCrLA4Aohbz51DypEq+GWEcGA4S4SokzVLhJidNU+EqfT1wMF+InAJDV+XxZBgAa3ZBn5QsyoA4dZgucJEKxBGI/iH1ycycLIZ4LsQ30gXPSlfrstB90Mv6mmTaoyednDGJVLn1GDhDLpTn86f9nOf635eYoBuawhk09UxYSo8wZ1u1J9uQwJVaH+IMkLSISYm0AUFws7PNXYmamIiRe5Y/aCORcWDPAhHiMPCeW18/HCPkBYRAbQpwuyYkI7/cpTBcHKX1g/dAycR4vDmI9iKtE8sDYfp8TsskxA/PeTJdxOf38c76sLwal/jdFdjxHpY9pZ4p4/fqYY0FmXCLEVIgD8sUJERBrQBwhz44N6/dJKcjkRgz4yBQxylwsIJaJJMH+Kn2sNF0WFNPvvzNXPpA7diJTzIvox1fzMuNCVLXCngj4ffHDXLBukYQTP6Ajko8LH8hFKAoIVOWOk0WS+FgVj+tJ8/xjVGNxO2lOVL8/7i/KCVbyZhDHyfNjB8bm58HFqdLHi6R5UXGqOPHyLH5olCoefC8IB1wQAFhAAVsamAyygLi1q74LXql6ggAfyEAGEAGHfmZgRGJfjwQeY0EB+BMiEZAPjvPv6xWBfMh/HcIqOfEgpzo6gPT+PqVKNngKcS4IAznwWtGnJBmMIAE8gYz4HxHxYRPAHHJgU/b/e36A/c5wIBPezygGZmTRBzyJgcQAYggxiGiLG+A+uBceDo9+sDnjbNxjII/v/oSnhDbCI8INQjvhziRxoWxIlGNBO9QP6q9P2o/1wa2gpivuj3tDdaiMM3ED4IC7wHk4uC+c2RWy3P64lVVhDdH+WwY/3KF+P4oTBaUMo/hRbIaO1LDTcB1UUdb6x/qoYk0brDd3sGfo/Nwfqi+E57Chntgi7AB2DjuJXcCasHrAwo5jDVgLdlSJB1fck74VNzBbTF882VBn6Jr5fmeVlZQ71Th1On1R9eWJpuUpH0buZOl0mTgjM4/FgV8MEYsnETiOYDk7ObsCoPz+qF5vb6L7visIs+U7N/93ALyP9/b2HvnOhR4HYJ87fCUc/s7ZsOGnRQ2A84cFClm+isOVBwJ8c9Dh06cPjIE5sIH5OAM34AX8QCAIBZEgDiSBiTD6TLjOZWAqmAnmgSJQApaDNaAcbAJbQRXYDfaDetAEToKz4BK4Am6Au3D1dIAXoBu8A58RBCEhNISB6CMmiCVijzgjbMQHCUTCkRgkCUlFMhAJokBmIvOREmQlUo5sQaqRfchh5CRyAWlD7iAPkU7kNfIJxVB1VAc1Qq3QkSgb5aBhaBw6Ac1Ap6AF6AJ0KVqGVqK70Dr0JHoJvYG2oy/QHgxgahgTM8UcMDbGxSKxZCwdk2GzsWKsFKvEarFGeJ+vYe1YF/YRJ+IMnIU7wBUcgsfjAnwKPhtfgpfjVXgdfhq/hj/Eu/FvBBrBkGBP8CTwCOMIGYSphCJCKWE74RDhDHyWOgjviEQik2hNdIfPYhIxiziDuIS4gbiHeILYRnxM7CGRSPoke5I3KZLEJ+WRikjrSLtIx0lXSR2kD2Q1sgnZmRxETiZLyIXkUvJO8jHyVfIz8meKJsWS4kmJpAgp0ynLKNsojZTLlA7KZ6oW1ZrqTY2jZlHnUcuotdQz1HvUN2pqamZqHmrRamK1uWplanvVzqs9VPuorq1up85VT1FXqC9V36F+Qv2O+hsajWZF86Ml0/JoS2nVtFO0B7QPGgwNRw2ehlBjjkaFRp3GVY2XdArdks6hT6QX0EvpB+iX6V2aFE0rTa4mX3O2ZoXmYc1bmj1aDK1RWpFauVpLtHZqXdB6rk3SttIO1BZqL9Deqn1K+zEDY5gzuAwBYz5jG+MMo0OHqGOtw9PJ0inR2a3TqtOtq63ropugO023QveobjsTY1oxecwc5jLmfuZN5qdhRsM4w0TDFg+rHXZ12Hu94Xp+eiK9Yr09ejf0Pumz9AP1s/VX6Nfr3zfADewMog2mGmw0OGPQNVxnuNdwwfDi4fuH/2aIGtoZxhjOMNxq2GLYY2RsFGwkNVpndMqoy5hp7GecZbza+JhxpwnDxMdEbLLa5LjJHyxdFoeVwypjnWZ1mxqahpgqTLeYtpp+NrM2izcrNNtjdt+cas42Tzdfbd5s3m1hYjHWYqZFjcVvlhRLtmWm5VrLc5bvraytEq0WWtVbPbfWs+ZZF1jXWN+zodn42kyxqbS5bku0Zdtm226wvWKH2rnaZdpV2F22R+3d7MX2G+zbRhBGeIyQjKgccctB3YHjkO9Q4/DQkekY7ljoWO/4cqTFyOSRK0aeG/nNydUpx2mb091R2qNCRxWOahz12tnOWeBc4Xx9NG100Og5oxtGv3KxdxG5bHS57cpwHeu60LXZ9aubu5vMrdat093CPdV9vfsttg47ir2Efd6D4OHvMcejyeOjp5tnnud+z7+8HLyyvXZ6PR9jPUY0ZtuYx95m3nzvLd7tPiyfVJ/NPu2+pr5830rfR37mfkK/7X7POLacLM4uzkt/J3+Z/yH/91xP7izuiQAsIDigOKA1UDswPrA88EGQWVBGUE1Qd7Br8IzgEyGEkLCQFSG3eEY8Aa+a1x3qHjor9HSYelhsWHnYo3C7cFl441h0bOjYVWPvRVhGSCLqI0EkL3JV5P0o66gpUUeiidFR0RXRT2NGxcyMORfLiJ0UuzP2XZx/3LK4u/E28Yr45gR6QkpCdcL7xIDElYnt40aOmzXuUpJBkjipIZmUnJC8PblnfOD4NeM7UlxTilJuTrCeMG3ChYkGE3MmHp1En8SfdCCVkJqYujP1Cz+SX8nvSeOlrU/rFnAFawUvhH7C1cJOkbdopehZunf6yvTnGd4ZqzI6M30zSzO7xFxxufhVVkjWpqz32ZHZO7J7cxJz9uSSc1NzD0u0JdmS05ONJ0+b3Ca1lxZJ26d4TlkzpVsWJtsuR+QT5A15OvBHv0Vho/hJ8TDfJ78i/8PUhKkHpmlNk0xrmW43ffH0ZwVBBb/MwGcIZjTPNJ05b+bDWZxZW2Yjs9NmN88xn7NgTsfc4LlV86jzsuf9WuhUuLLw7fzE+Y0LjBbMXfD4p+Cfaoo0imRFtxZ6Ldy0CF8kXtS6ePTidYu/FQuLL5Y4lZSWfFkiWHLx51E/l/3cuzR9aesyt2UblxOXS5bfXOG7omql1sqClY9XjV1Vt5q1unj12zWT1lwodSndtJa6VrG2vSy8rGGdxbrl676UZ5bfqPCv2LPecP3i9e83CDdc3ei3sXaT0aaSTZ82izff3hK8pa7SqrJ0K3Fr/tan2xK2nfuF/Uv1doPtJdu/7pDsaK+KqTpd7V5dvdNw57IatEZR07krZdeV3QG7G2odarfsYe4p2Qv2Kvb+sS913839YfubD7AP1B60PLj+EONQcR1SN72uuz6zvr0hqaHtcOjh5kavxkNHHI/saDJtqjiqe3TZMeqxBcd6jxcc7zkhPdF1MuPk4+ZJzXdPjTt1/XT06dYzYWfOnw06e+oc59zx897nmy54Xjh8kX2x/pLbpboW15ZDv7r+eqjVrbXusvvlhiseVxrbxrQdu+p79eS1gGtnr/OuX7oRcaPtZvzN27dSbrXfFt5+fifnzqvf8n/7fHfuPcK94vua90sfGD6o/N329z3tbu1HHwY8bHkU++juY8HjF0/kT750LHhKe1r6zORZ9XPn502dQZ1X/hj/R8cL6YvPXUV/av25/qXNy4N/+f3V0j2uu+OV7FXv6yVv9N/seOvytrknqufBu9x3n98Xf9D/UPWR/fHcp8RPzz5P/UL6UvbV9mvjt7Bv93pze3ulfBm/71cAA8qtTToAr3cAQEsCgAH3jdTxqv1hnyGqPW0fAv8Jq/aQfeYGQC38p4/ugn83twDYuw0AK6hPTwEgigZAnAdAR48ebAN7ub59p9KIcG+wOeJrWm4a+Dem2pP+EPfQM1CquoCh538BCMWC+W5zqEsAAACWZVhJZk1NACoAAAAIAAUBEgADAAAAAQABAAABGgAFAAAAAQAAAEoBGwAFAAAAAQAAAFIBKAADAAAAAQACAACHaQAEAAAAAQAAAFoAAAAAAAAAkAAAAAEAAACQAAAAAQADkoYABwAAABIAAACEoAIABAAAAAEAAAJ4oAMABAAAAAEAAACgAAAAAEFTQ0lJAAAAU2NyZWVuc2hvdG1r69QAAAAJcEhZcwAAFiUAABYlAUlSJPAAAALbaVRYdFhNTDpjb20uYWRvYmUueG1wAAAAAAA8eDp4bXBtZXRhIHhtbG5zOng9ImFkb2JlOm5zOm1ldGEvIiB4OnhtcHRrPSJYTVAgQ29yZSA2LjAuMCI+CiAgIDxyZGY6UkRGIHhtbG5zOnJkZj0iaHR0cDovL3d3dy53My5vcmcvMTk5OS8wMi8yMi1yZGYtc3ludGF4LW5zIyI+CiAgICAgIDxyZGY6RGVzY3JpcHRpb24gcmRmOmFib3V0PSIiCiAgICAgICAgICAgIHhtbG5zOmV4aWY9Imh0dHA6Ly9ucy5hZG9iZS5jb20vZXhpZi8xLjAvIgogICAgICAgICAgICB4bWxuczp0aWZmPSJodHRwOi8vbnMuYWRvYmUuY29tL3RpZmYvMS4wLyI+CiAgICAgICAgIDxleGlmOlVzZXJDb21tZW50PlNjcmVlbnNob3Q8L2V4aWY6VXNlckNvbW1lbnQ+CiAgICAgICAgIDxleGlmOlBpeGVsWERpbWVuc2lvbj42MzI8L2V4aWY6UGl4ZWxYRGltZW5zaW9uPgogICAgICAgICA8ZXhpZjpQaXhlbFlEaW1lbnNpb24+MTYwPC9leGlmOlBpeGVsWURpbWVuc2lvbj4KICAgICAgICAgPHRpZmY6UmVzb2x1dGlvblVuaXQ+MjwvdGlmZjpSZXNvbHV0aW9uVW5pdD4KICAgICAgICAgPHRpZmY6WFJlc29sdXRpb24+MTQ0LzE8L3RpZmY6WFJlc29sdXRpb24+CiAgICAgICAgIDx0aWZmOllSZXNvbHV0aW9uPjE0NC8xPC90aWZmOllSZXNvbHV0aW9uPgogICAgICAgICA8dGlmZjpPcmllbnRhdGlvbj4xPC90aWZmOk9yaWVudGF0aW9uPgogICAgICA8L3JkZjpEZXNjcmlwdGlvbj4KICAgPC9yZGY6UkRGPgo8L3g6eG1wbWV0YT4KP/y7nAAAPC9JREFUeAHtXQn8VlP6P/Yh/maiZCiSRNnKElKyZssyhWSbQcmaEUUM2dexb8PYd7I2DSaEsk4lyhqiyFLMREoN7v/5Xs51znnvve+973vf3/ve9/0+n0/dc8496/e8v3uf+5xnWcwTUiQiQASIABEgAkSACBCBukFg8bpZCRdCBIgAESACRIAIEAEi4CNABo8/BCJABIgAESACRIAI1BkCZPDqbEO5HCJABIgAESACRIAIkMHjb4AIEAEiQASIABEgAnWGwJJ1th4uhwgQASJABBIi8NZbb6n//Oc/obXbt2+vWrZsGXqPhUSACNQ+AovRirb2N4kzJAJEgAhUAoHu3bur8ePHV6Jr9pkBAnRykQGIDdwFj2gbePO5dCJABBobgSjpXWOjwtUTgfpAgAxefewjV0EEiAARSI1AHIN3+umnK0iQ+K96GKTeUDYgAgYC1MEzwGCSCBABItBICJgM3ujRo1WHDh2C5bdq1SpIM0EEiED+EKAOXv72jDMmAkSACJSNwPz581WzZs2CfmbMmKFat24d5JkgAkQg3wjwiDbf+8fZEwEiQARKQuDbb7+12v3ud7+z8swQASKQbwTI4OV7/zh7IkAEiEBJCJjHs0svvbRafvnlS+qHjYgAEahNBMjg1ea+cFZEgAgQgYoiYDJ4K664YkXHYudEgAg0PQJk8Joec45IBIgAEag6AiaDx+PZqm8HJ0AEMkeADF7mkLJDIkAEiEDtI0AGr/b3iDMkAuUgQAavHPTYlggQASKQUwT++9//BjOnBC+AggkiUDcIkMGrm63kQogAESACyRGgBC85VqxJBPKIABm8PO4a50wEiAARKBMBk8Fr3rx5mb2xOREgArWGABm8WtsRzocIEAEi0AQImAwej2ibAHAOQQSaGAEyeE0MOIcjAkSACNQCAmTwamEXOAciUDkEyOBVDlv2TASIABGoWQTI4NXs1nBiRCATBMjgZQIjOyECRIAI5AsBWtHma784WyKQFgEyeGkRY30iQASIQB0gQAleHWwil0AEYhAggxcDDm8RASJABOoVATJ49bqzXBcR+BkBMnj8JRABIkAEGgyBRYsWqW+//TZYNa1oAyiYIAJ1gwAZvLrZSi6ECBABIpAMgW+++caqSAbPgoMZIlAXCJDBq4tt5CKIABEgAskRMA0sll56abX88ssnb8yaRIAI5AIBMni52CZOkggQASKQHQKm/t2KK66YXcfsiQgQgZpBgAxezWwFJ0IEiAARaBoETAaPx7NNgzlHIQJNjcCSTT0gxyMCRIAIEIHqIlCMwYMBxrx589T8+fPVd99951+///57tcQSS6ju3btXd/IcnQgQgUQIkMFLBBMrEQEiQATqB4FiDF6HDh3UZ599FrrgOXPmqJVWWin0HguJABGoHQTI4NXOXnAmRIAIEIEmQcA0sgg7ot1hhx3UqFGjlFmvSSZW44P89a9/VTfddFPoLCHdHD9+vCqm09irVy81c+bM0D5QCNzbtWsXeZ83iEBSBMjgJUWK9YgAESACdYJAMQne7bff7h/Rghl58cUX62TV5S/j008/Ve+++6766aefQjt75JFH1CGHHBJ6D4We56lp06ap6dOnh9ZZbbXV1G9/+9vQeywkAmkRoJFFWsRYnwgQASKQcwRMBq958+ahq4HrlOOOOy70XqMWXnrppf7RdZSU7r777ouFZrHFFlMffvihuuuuuwrqnXnmmb5kj8ffBdCwoEQEyOCVCBybEQEiQATyioDJ4IUd0ep1tW/fXid5/QWBli1bqh133DEUj6eeekp9/fXXoffMwn322cfMqjZt2qhTTz1VgQEkEYGsECCDlxWS7IcIEAEikBMEkjJ4K6ywQk5W1LTT/OGHH0IH/N///qcefvjh0Htm4VdffWVm1QEHHOBbKFuFzBCBMhEgg1cmgGxOBIgAEcgbAkkZPBgOkAoRePvtt4PCxRe3X6PFjmnR8IMPPgjaI7HTTjtZeWaIQBYI2L/MLHpkH0SACBABIlDTCJjWsXFHtDwyLNxG+AiEoYSmk046SSf96zPPPKNmz55tlbmZ9957LyhaaqmlVNeuXYM8E0QgKwTI4GWFJPshAkSACOQEgaQSvJwsp0mn+e9//zuwosUR9jHHHGPpzv3444/qoYceip0T+tC08cYbq2WXXVZneSUCmSFANymZQcmOiAARIALZIrBo0SLfL9rdd9/tu+f45JNPFCQ+sLRcffXV1ZZbbqm6deum4M4kqbQNDMjcuXODicZJ8IJKZSYWLlyo3nnnHd9KdNasWb4rkE6dOikYcSy99NIl9w58PvroI//IE77lwHCtscYavtFCnLuR3/zmN2rJJUt7/b300kvBfDfYYAN/H7p06aImTpwYlOOY9ogjjgjybsLsA3tIIgKVQKC0X3glZsI+iQARIAJEIEBgxowZarfddlNTp04NysCUQMEf0STgj+3pp5/2GRWEE0vKKOGI0fTjVkkGD0eZ11xzjbrzzjuVa1iARWE9a6+9thowYIA6/vjjlavPFizcSYDRPfvss9Utt9yiYNiQlo488kh17bXXpm3m13/55ZeDdpC+gXr37m0xeM8995z6/PPPVatWrYK6OoEQcFOmTNFZtcUWWwRpJohAlgjwiDZLNNkXESACRCADBF577TX/xa+Zu7322ktNmjRJLViwQOF49aijjgpG2XDDDRMzd2hkHs+CKYS/u0rQvffeqzp37qyuuOIKi7mD3z19JAlmFZK9IUOGqG233daXxhWby/XXX+8zhTfccEPA3C2zzDJ+WVKpHCR/pZLJ4G266aZ+N3vssYfVHRjokSNHWmU6g+NZSFE1kcHTSPCaNQJk8LJGlP0RASJABMpAAL7UevToEcSCvfjii33XG2CWwMDg6BFME45oQWmP+EwDiyiHvWVM32961VVXqf33319BsqjphBNOUDAugCQPUsSbb75ZmU6Wn3/+eQVm9f3339dNCq442jz22GMVjnxBOJYePny43x+khej7sssuK2gHKeWwYcN8x82HH364LxktqJSgAHOD9FSTZvCwN61bt9bF/vX++++38jpjHs+ussoqqm3btvoWr0QgWwQkdAqJCBABIkAEagABkSx5a665pidPef/fwQcfHDmrwYMHex07dvREoT+yTtgNOdYN+l9nnXXCqgRlEnUhqKvnJAxOcD8s8eabb3qi42a1O/3008OqehIGraCuOAEOrSvSS0+YKKtfYfZC6wIbPV9c5ejXmzBhQmjdNIUSwi3od7nllvNEAhk0FwY2uIcxhfn05Cg5uK8Tu+++e1Bvzz331MW8EoHMEaAET/4SSUSACBCBWkDgtttuC44pId2K0xO7/PLLlTBTau+99041dfOIthL6d4MGDVLff/99MKfNN99cIQxXGEH6+Oc//9m69cADD6hXX33VKkPmjTfe8I009A346Bs6dKjOWldIPWFIoQlHpoivWy6Zx7PQvzP9BPbr18/qXt7WCmtxyeyDx7MuOsxniQAZvCzRZF9EgAgQgRIRgLHAueeeG7QeOHCgatasWZDPKlFJBg9xVseNG2dN9dBDD7Xybgbxbl0DkbPOOsutpqCXaBKOqPUxtVmONCyN11tvPasYun7lknm8qo9ndZ+bbbZZwXGr6/R4+vTp1hFv2uN1PRavRCAJAmTwkqDEOkSACBCBCiOAAPQficsPEHTLjj76aD+d9X+VZPBcvTMYP7iSLXc9sDQFc2TS5MmTzayfdsu0oUZBxV8K4IbFJDd6hHkvSXr+/PmW9Sskky7tt99+VtErr7yiYA2tyZRMQvrnMom6Hq9EIAsEyOBlgSL7IAJEgAiUiQCMDDSBOYmSTuk6pV5NI4usj2ifffZZa1rwSZfEkMOVZMFXnnnMi07BYJnkSv3Me0i748b5xXPbhuVh/WrGoHXnjDYug4djWpPpBcOnCQYllZDQ6v55JQJk8PgbIAJEgAjUAALmEWLPnj0rNqNKSvA+++wza95hfuCsCr9kXGkbGCMcZ5r0+9//3sxakjHrxi8Z+MozCU6JyyFTd65FixZqrbXWKugOenliuGKVm3p4pgSP+ncWTMxUAAEyeBUAlV0SASJABNIiYDJ4lTy6Mxk8001J2vmG1YdzX5OSMnhh0jXo85mknQrrMkgix4wZo7PWFW5YEBPWpPXXX9/Mpk6b+ndxzJkrxQNThygbkP7Bl6GmuD50HV6JQDkIkMErBz22JQJEgAhkgMCXX35pOSCGf7RKkcngZX1Ea/qIw/zhmDkJ/d///V9BNdOHHm7CmbB77ApjjDCnxZdeeqnvG093iv779u2rsyVdTQle2PGs7nTffffVyeD64IMP+g6dTTzi+ggaMkEEykCADF4Z4LEpESACRCALBBC+yiTEmq0UVZLBcxlGM2JD3Hpc/TrUXXnlla0mMKpAdAjT/cn48eP9CBjQj4PzYzg7Pvnkk9WIESOstnC8DH3AUgnHxV988UXQPE76Bkmhe+T88MMPW1bA2F/E4SURgUoiQAavkuiybyJABIhAAgTEubHFuJiGEG5zxDk95JBD1EUXXeTeSpSvJIPnRmUwmaK4yUGC6VKYFHOHHXYoCAEmzpIVLFrB+EH/7cILLwy6Qpk4WVbiMDooKyVhSu9g/epa/bp9use0mCP2TVPXrl11klciUDEEyOBVDFp2TASIABFIhoBEWlASlSKoPHHixCBtJuBGpU+fPr7T3riQXmYbN20yj67Eza2bNu8yeK5OXlR/YYzgqquuGlr966+/Di03C6FbCCb43XffjXSybNYvljb17yChKxa/1z2mhf7dTTfdFAzD49kACiYqiAAZvAqCy66JABEgAkkRgKRJE+Kpun7bEMlhr7328uOtol7cMaHux73COrWSEjzXsvTTTz/1mSx3Hm7eda8Cg4owA5BbbrklkMZttNFGvtNgWMvC2OLRRx9VYIzBwCIm7a233qratGnjDlVS3mTwkuDeoUMH5RqFmAMn6cOszzQRKAWBJUtpxDZEgAjkEwE40K0lAsNB+hkBiUvqMy8IqYUjSzAwO+20k4KzYDBArjSsFCkQDBdMX27FJHhmXb1PcXp1nTt31tWC6x133KHOOeecIO8mwIy5Fq+QUro0d+5chTBomu655x6ldRVXW201XZz5FZiZTpbdCBlRA+KY1myn60FaG+YkWd/nlQhkhQAleFkhyX6IABEgAmUigFi0YPCgfwbGAsr59957b8DcgTmAAv+AAQPUuuuum3o0U3oHR8HFjhrDjB9cB8TmJGCp6hoY3HnnnQph2KII6zUZScxr//33L6j++OOPWxazYTp6BY0yKIADanN+rpQyagj3mFbXw1F8mNWwvs8rEcgKAUrwskKS/RCBHCBAiVntb9JBBx2k8A/RHN566y2f0YN7EPxr165dWcyByeC5LkfCkHF90aEOLEqjjj5hgHD++ef7Lk10fx9//LHPsCEuK+6bBMkdrF5NwlE11umSGekD97bffnt15JFH+sww/OiB+TUJ0mpY4uK4tBzJNSSFJiWVFoIRhDEGLHxN4vGsiQbTFUVAHvgkIkAEiAARaAAExJITZ+L+P7E4jV2xSO+8bbbZJqiv22233XYe7sVRr169Ctr94Q9/8MaOHeuJBNAT4wfv8ssv94TJtOphPJH2hXYtrk6suno+xa5yDO3tuuuunkgKQ/uNKxQnxZ4ckVvjXnPNNXFNrHuXXHKJ1RZzFWMLqw4zRKBSCKhKdcx+iQARIAJEoLYQeOSRRwKGQ1x1RE5OjBkKmC+TkQLT9NBDD0W2B5Mmvui8JZdcMhjPbB+WFv06T3zZRfY5Y8YMT9yeJO4vbAxxlxLZv3tDrHBDxxNJobfVVlt5mE8xQh2RHlpzfvPNN4s1430ikAkCtkxb/iJIRIAIEAEiUJ8ImEe0cQYW7733noJRQxShn7DjW11fGDt1xhlnKPiP23nnnZUbR1bXg/PiAw880Dciue666xT076KodevWCo6NyyHo+wljWrQL6Nzdf//9Kkzf8KefflKwqm3WrFnRfjBnYQaDejgWT2qkETRiggiUiAB18EoErh6awY8WFLih71OOl/dKYCGfL743ejkOUj169ChLh6YS82OfRCCPCCRl8M477zyFf+XSJptsomAcAYL7EpFeKRhugAFcffXVFRggMzJF3HjwlTd06NCgCpjDM88802cKEcUCjJcmzYDCfYrLqELvT46LddXQK+YXZmASWrlIYblMaZHueZsIRCJABi8Smvq8ARcHcFsAp5v6wQNm6i9/+UtNLRhfyIgziX9Q6IbT0pNOOkmtsMIKNTVPToYI5AmBpAxeJdYEQ4hu3bqV1DX86cFg4bPPPvPbQxIGRq1Lly6x/YEp7N27t2XoYEaliG3Mm0Qg5wjwiDbnG5hm+vh6xgP2T3/6U8DcoX0Sz/BpxsmiLh7M+IoGiR6LOvvss31ruLvuuiuL7tkHEWhIBCoZxaKSgEJSp5k7jIOPvWLMHerBlYoriXQdSKMeiQjUIwK5ZvAgkp85c6aaMmWKgs4IHGaaYvo8bhicmcJjvel3KYt1wDM+HoivvPJK0B1C7jzxxBMK90qhBQsW+C4TgD9cIcBvV1a09957+8c5cP6qCQ946Ov069fP8oel7/NKBIhAPALVlODFzyz+rj5t0LV69uypk0Wvrs+5KBcvRTtihZIRqMd3dclglNAQp2x4/+FdC93XpHxO6BEtnFJuuummsc4pMcd//vOfCkGyXQLTcMIJJ7jFVv7SSy/1lW+twgQZ/KFff/31vvIuJDuuA034WYI+GSRVW2+9ta+/FecQ9Nprr1VXX311gpGVrwe23HLL+X6o4EEd+iXwaYRxXP9OiTo0KoFZgv8oBBCHPgkwFFcDRo3SkzfffLO1H61atfKPPg899NBU88YcH3vsMT/Y91NPPeXr1Lizgj4NfFhBb05cHvjXqJiSbls3j8DhYvWn4P9qyJAhasKECX4V+NMCMw8nsMUctbp9Nnoe+khQ+sYDI47A9Ef9/vCb/+abb+Ka+wHfcTRGqi0ETAYvLBRYbc3219m4L7Q0H8CjR4/+tSNJxYUQsyoyUxYCWb+ry5pMzhrjBAv+F6GGAIYO//D+1YT3LIx1wHuccsopKvIdKw/6Avr22289sXqyTLulYysvCrKePCwK2qIAJvZx5uyii+HBv1Aakj9Sb8MNN7Tm4M4pLC+MXuwwp556qifMWep+zbHat2/vicVV7DhxN+FuQJhSaw7/+te/4pokvvf00097Sy21VNA39lV+PInb64qirOyJ486gH3P9cWn5ANBdlHWVB7y3++67W+NLGCcP5aTkCIjj3Ni/Teyl6Dl64pw1tFNh7Dz8/cbtuVgXei+88EJoexZWFwG499B7Jx9I1Z1MitGPOuqoYN6Yf//+/RP97cPfnkjsgrZwWfL666+nGJlV0yJQqXd12nnkrT58S959993eLrvsksq9kAidPBEMhS430g8eXpwXXHBB8IehHwq4iqSp6B+XHNd58LNkttN/mHG+jtxZypeaJxxqgS8hkdz4zisvvvhi78Ybb/TgQ0l0tgrGgy+jYjRnzhyvZcuWBW0B9OGHH+6Jt3TviCOO8OCoEw/IKOb1yiuvLDaUdR8PnzCHoMBJvn6suqVk3n77betlDHzGjRuXuiuR5hRgA0ZRYi16WLMYbXjDhg0rYFKxDgmOnnq8qAaiK+iBYTR/U+eee25UdZZHIAAGP+p3JxbVHv5242jevHne0Ucfbe2D3hM4wRU9r7jmvFdFBOSrP9i3Z599toozSTf0P/7xj2De+rcmqhrepEmTQjvCy1JOZzy8/HR9XCVqRmh9FpaPQFO8q8ufZe32ILGnrd+q/t1KzGlPdNC9K664wn/ntmjRIrQefFy6FMngoSKcNOpB9FWO3zyxxHT7Cc2DEdTtcIVHcAmiHVo3rFBEkh5eGGYfSIPxkqOmgiYvvvhiAZMnx7kF9cIK8GJzx4mSdKEcDwq3vvhw8sTaK6x7qwwvSLRHfbcPnRddOatN2gwkLa7EDV7V0xJ+NHDsqeeFKx6sYd7mRXnZk+Nfqy4+ErIkSJZM3CB9Fau4LIdoiL7wYjT3FGlIevGxk4QkjFZBewk0XzTCQZK+s6rz5JNPehJWKvgH6WWjk/n3mTdJFj40w05b8NGHCBh9+vTxP1yQd50L4+NWQqA1+vZXbP1N+a6u2CKq3LH58YXnMX6zEse5YFZ494bxRRKWz5s9e7ZVP5bBmzZtWsFDXJxXWh3EZcTyyWovCvNx1QvuiUK91R6LPv744z18KUTRYYcdZrWZPHlyVFWrXIJbW+3atm1r3Q/LhDF5F154YVjVoEz0xzwcb7svVzcv+mZBm1IS4l7EGqMUSRp+SOKnyuoHEtE4Bl/0/az6lZASIFSQiRce7qT0CJgve+CJo6ykJIZA1h6A6Z46dWrS5k1ST3RYrDnyQ8Czwm7hAz5vJDpJnhhgeWI4Ye2t+Tww01AX2Hfffb133nknb0vN1Xyb8l2dK2BSTNZl8CCBjiJ8iINHMX/rSLtqF7EMHiq7HaQ54sMRntk+zREmGCWzLdJiGh+13qBcnGoG7XCMG8cMBo0k4YpHwfAVI0jiXOnWgAEDQptBuuVy3ZAuHHvssZ4YawRz1muOOnoI7dwphG6kqSeFr9lSHuZgRvV8cMXXMySDcSRWPkEb1AdGlSD3j0GMPioxTF33aepjYX/FsCrxel3pPNQoao3I4Nk7At1q8+8Z+bzSokWLPMTVxQkNPmbxHIUaDXT1xKenrzoC/eM06kB5xaLa827qd3W111up8c13WqdOnYoOI+5/rL9n/G3jKNekWAYPIm3zgYAjVgSKTkpivWq1T8q04BjOZZw6duyYaGxx1xGMCYYqCeEhYB77Yc0IhJ2ExM9SMB7a9e3bN7TZqFGjgnpQYkf/mvkcOXJkcE/jnVTyGDYYNln3gyvO8Esh6B+a/Wy++eZFu4HUTzzM++3ANFeK3N+muE2o1FB126/7ASZudBKtFfpN5u8eUt5ienuJOs64Ehk8G1DzWB3POxIRKBeBpn5XlzvfWm4v/mn9dzXe1xJhquhUYcxivp+RdgVToW5SpKJPrsdv+FETJk/fjr3CoaYYEQR14M5CrGCDfFxCFPYtPy8iCVJimZtobIS+kWNBv/tI02Fn8Ndee63ArxpcQRQjhLKRM2+rmui9WXmdEQtQBd9NiP8okkw/TI++hzlnSWKJY3UnRxRWPmlm+vTpVlW4zilGojeg4IpBfp1KmPRi1Uu+v88++/iuXnQH8jWv5AUWGfNS1+P1VwTcWKT4PSehv//970r0UIOqYuik4D6IVNsImC5SEAmCRATKRaCp39XlzreW28OdWRoS7x1Fq0cyeHhBm05x0RP8ZyUltEUfmsAcgFErRohbCN8vJg0ePFiJ9MgsikzLcaTvfy2yQsgNhMUySb5uE/lKQmQI1z+TiFnNrqz02LFjrXwlMpiTWM8GXQMPkSoG+TQJOF02Sc79zWxkOulHQGQHCW7ASTOw1mvFb00koeq4445L0JpVgABCR5mUhMGTYz0llstBs+7duyuRBAZ5JmoXAZPBc5n72p01Z1arCFTjXV2rWFRjXmZUGj0+4jubFCliEYuzgiDNIjo028amXaYpiUQMHQ4fPtzqF0xhMafJVoMSMq6kUqwBE0kLIVU0CYwhpHTVJPGpZw2PPXM33aoQk3GlkXLMrMQKOqZF096CFM8kd+3mPaYLEXClOEkYPDji1tI7SGhF1aCwY5bUJALmC4EMXk1uUa4mVY13da4AqvBkReWtYAT3lDSSwXMZNPSUhsFzmSbxiVcwGbcAR6Wie2YV77rrrkqMEayyrDPuWpPMFczOddddZ01FFH2VmOhbZU2dcaWu5UQTcHGAJ+0//vGPBdFDmnqNejx3bYh04UpUdV1eCxFIy+Ah4Dsi0GhCTOMk8UB1fV6riwAleNXFv55Gr9a7up4wLHctN910k9UF1OAQ4tOkyCNal+lB/D5xbmu2jUyHHe8mkeC5umMYYODAgZHjZHED8d0Q8sykYnNFmC6E+TJJTJaVWG+ZRVVJI46tSRIhw8ymSuP4zSWI5SE5E+fGSoxF3NtNmndjSiIWLgKJJ9FNKDZRSLMQ0k2MRopVLfs+PmDef//9svtJ24F7RCsGVLFdnHbaaUpL+RDf0w3iHtuYN6uOABm8qm9B3UygGu/qJOA1wnMbOEikICUGLhYkUE8St0BWWWIGL430TnwOWXFK8SLGyzKOwBSK5YhVBUeL4tTYKss64zKy6N+VXOkxxTGof4SMGLwmQRdMQospVyJi1mmKtER6UDNnzrSGEmtHK58mg3iy4tS4YF8effRRtdlmm/k6b9CFqxaJY0dfr1P88gVTwB5lweChT+ibNQWZR2dNMZ4ew/29QvoJJg9xDl0CrrfffntQjI8Zif4S5JmofQTI4NX+HuVhhtV6VyfBphGe23hGi79fC44OHToo8SxhlSETyuDhQQAmzaQ0DJ7LNBWTiGEctPnkk0/MIX1xYxLDDKtRyox7lIzmWucPLzxIhfCif++99wp0EsG4QqqBY0uJApBy5Oyru1avGKEcBg/txc+UvzfifgbZgGAhDcOXq6++ukCaGVSqcAI6YBK2RZnGIAjKTEqGgCvBQyt8AYcxeOKDMjj+BgNNY5ZkGNdSLTJ4tbQb+Z1Ltd7V+UUs25mD5zA9lIhbMnXXXXeF2g2EMniuBSyml4bBc5mmKImYuWyIHF0KOyJ065Sbd5lR9AcJVTGSWJy+PhIMK2qFxAlxwVTKZfAg5RkzZoySSBgKhjcmQScPXxLYu7/97W8KLlKamrA+k8ELw6CUOUHUDbP1pjiiDWO0Splz2jauBA/tweA1b97c6uqJJ57wfwO6EHp4tfS71/PiNR4BU1JMI4t4rHg3GoFqvaujZ/TrnXp/buP0UEL2/bpgScHYU4IlWGU6E/pGlpiu+r5/xRc9LEuTkss0JZHgucYBGGvrrbdOOmRJ9fDynjhxotUWVijaqAMSPFiNQrLo+ruDZAsMDV52lfT3Zk2uSEbi81o1ML+VVlrJKislA4kN9kfClKkwS1UwQnChInFrFdyyNCW5DKyLQalzwZ7CiKCeKYzBA9NuEo48IL3T1KtXLwWfjtUgcQzuu2hJynS7f9uw+JVY2ommDiZXS/ITNchBJUrwcrBJOZhiNd7VSWGp5+c2XIKJI+PgJAWYSDjYeDdVcp5eQDvuuCMc2AX/hNEqqBNVIC9YKwoFApgjEHExQtguc0x5EBdrUvZ9eOE2x0RamNvQfhHLEHFuEfbLbCPHs6H10xTKH4zVJ/ovJZLFbbfdZvUjzmfTTKNoXWF4vUsuuaQg6ofG44orrijaR9YVxJLWWvPBBx+c9RB12x9CVem901f3d3fjjTcGdeSDwRMpbtXwQJg8Pc9KX+XDqGrrrNTAolMb4OfGrHTHrDS+7P/X92scFu6+1EK+Gu/qWlh3NecgxqCeeOgI/n7xm0FYvmIUKsFzv3zTHM+++uqrFocp4apCdXpkggFB+gMXDCZ169bNzFYk7R4lQ48uSlIJJUZ48IdiucThDOZz6623qgMOOEDtsMMOQVm1EpA4mhSmS2XeT5uGdG7IkCGqZ8+eao899vAjR5h9SDxSBbc2a6+9tllckIYk4YYbbgjKcfwLfEshd40uBqX02ShtYFYPHVfTSEVbyQID6J+airvyQPGdSyfFJ8t9Tjom60UjQAleNDa8kwyBar2rk82uPmvBBgDv1Y8++ihYYP/+/dVVV10V5KMSBQweFPVhjWlSGgbPPZ5Non+nHaeaY8LtSKXJnevGG29clBk955xzfMMD82GJ0GO1wODBdYVJ0LnByztrQxWc9wM7XM3oFmAORIqoJBauOY2C9Pjx49XJJ58clKOfUhk8c3x06GIQDMJEKALAy/wtmwweQpDBjRAIR/0jRozw00n/y3KfMSY+wCQId2K9SKhXmHpn+DhLqu+YNMxhUixqoZ65z8V08EQyUAtT5hxqDIFqvatrDIYmmw7UUuCWDH4HNUFFBu/ZJKphBQyeK71Dp0nDhKGuKxVLon/n6rehn6ZwweDONQkzClDhGmTcuHGYpk8ID1YL5DI3kGaBAXL11LKYKyyIodzpOhueMmVK0e5N3IFnEtyjOnUja7gYRLVLUg5mpykkgtCVdCWRSeaXRR0wPOaLX+vggbGT4/hgCDDtxZiCoPIviSz3GV0Co6lTp7rDRObhdgk6K5oee+yxsn5rup+8Xs19TruXeV0z550tAtV6V6dZRT09t+Gt4MknnwyWD2Hb/fffn9igsYDBM81v0St8jWmjg2CUiASkRa6FzbbbbhtR+9fiavxowBi4LjWSMhquRMyVIv26sqZNhTE3+OKqBIOHleFLAse1zz77bLDQJAyeqaS7wQYblOUw2f2iDMMgmFyKBI4n0VdTMHjwEaklZSmmmElV19BCS/Dg5w4YgLBHpTgcz3KfM1lsA3cC31l6PwEDGbwG/jGUsfRqvKvTTLeentuwljWjZUH1CR+pcIuSlAoYPFciksaRLR7ophUjjjyTMIdhPuSysP6MA8GULuh6SaSNqOtGvkga4UOPU6lrWMxZdz+zHhsOj00GzzwSixoLkiHNFJfDfOKD4quvvrKGCcPAqpAwA8auKZg7TCepVWjCqaeq5h5ZgsEDk27GWYb1qftRk2SQrPY5yVisE4+A6bQbLm6gf0kiAmkRqMa7Os0c6+W5jcAJJ554YrB0CNoQRQrXNFTA4LkSETiSTUpuhIfddtstUdMwfbtiYZPMjhGyAy8lvITEijKRqw5X/w4MZTHjAIwJlymu099qx5/VWIDRxA9AM08od/dT1w27QokTxzjA0Q1aHFYfZe5ReuvWraOqBuVg/LMgfE26ukIw6iElRyBMgjd06NCAuUVsw+222y55h0bNrPbZ6JLJEhEwj2fdPS+xSzZrQASq8a5uNJjh1/Wggw4KnsGQ2EFyl4Q/cbEqYPBcP2ZJHZpCGdD86sdAffv2dccLza+11loF5bNmzSooCyuAxAEvIVjhYu5IJzmmcxm8pMez8H9nWh1iTknbhs0/qsxlXKLqueVgzJ555pmg2GVGgxshCShzTpgwwccRuljLLLNMSC27aNq0aVZBFLOL9aBP7Bf+IY2vwbC9tzqMybhrQ3/rrrtuTIvktyDhGDVqVJNI15L8XpPPPF1N92WPjzQ4NgZh/009vCQ9V2Kfk4zLOvEImAwej2fjseLdaATCnteVfldHz6bwTt6f23h+grkzT95gLVvM0BX+aS+66CJfTxnSP823FTB47gvSPY4shPTnEji7NTcayvdJv+ARtB6SQvN8H079khCUv7WLFVhiJnlZ4kgM7lxMSsKkgaEwz8TRHkAOGjTI7Cp1euHChQVtTH2ZgpsxBbBINRk8MCnDhw+PafHzLUhMEW8UhB8ZpHnFLFtRz2WUo5zgbrrppmrSpEk/D/bL//gadPUgrQpFMlibSdAV0z9ss7yUND4WotZSSn+12sY9oh09enQwVTj6DXugBxVCEpXY55BhWJQSATJ4KQGrw+p4f8H6UpP4SbWOAXV53LWp39Vxcwm7l/fnNgzDnnrqqWBpcCHmxp0NbhoJBFzQOs94LwckGYvuu+8+y5meMEye6DlZddyMcIyeSE+sdvIyd6vF5g888ECrPRyNiqQnto1IGyynyhJpIba+vvncc89ZYwkYnkgt9O3QK5ysCsNa0O7II48MrZ+m8J577inoVzjyNF0EdcU1hdWX/OC9mTNnBvejEm67Cy+8MKpqUC7uYayx4vZMGHFPXFxY9ffdd9+gr1ISwoBa/YlX71K6aeg2YkxhYYi/BfwTNyEeHCGnpUrsc9o56Pru35Xo3epbDXc1sdh5550bbv1csOdJvFLrb11UcTw5jUoNTVO+q1NPLscNFi1a5MkHdbBHYnznidArckXYOxHAeWJpG7SRUxerPqQ1FoEZQAQE/aDHdcCAAZ4oL1r1dEaO9DwRi1r1RWKkbye+isTIw+TMcUXJMHRczAUMiMtUXnvttYnGE4mbNQ6YIPH9F9oWY0ksVk+kTVYbzBMPSmxKOYT2YtxR0DciNERhHjce2oguntVfkggTchRntQFjP3369MihwIBK3D+rDSJpxNEbb7xh1RcrobjqsffEXYbVF/ZD3NXEtuHNQgTcfdd/f+LAu7BywpIs9znhkKHVTKYG62pkBg/PRr234jomFC8W1jcCEmM9+A3o34JY76dedFO+q1NPLscNXIEJ9kgkpqH/wHOJi7GC/RSdeAuBgiNaWCEiUsPgwYOl/59JwhUpuE+B8vU666zj+2CBuFekferOO+9U8+bN01X9qA5wBpyW1lhjDX9MnCNrgv4PjmohosRxIYwH4AfrgQcesCw3df0kx6zy8lG33367buJfobuFyArQOYJPMqwH1qA4nsZxZ5ihAqJXoA3aJiXoKeI4GX3DLQaOLOWrSkn4p4IucPyI9fTr188/6obxBI7TYEiBOUYRRNTQpROmLqgycuRIBX86caTFu7qOSCx9f3+nnnqqr2QPa2hYrOJ3AF1Lrael68NxMQxc4gi6dyYV0ysw67pprMkkWHt37NjRLGI6AQLuES2awO9lsb2M6zrLfY4bh/eSI8Aj2uRY1WtN+SAvWBrebXDTlIaa6l2dZk55rwsrd6ibuWRav7v3wvKuTnWBBA/sH6RA+MqTDhL/E0sPX6om+m0WB5kmI7ponjAKHkTHacZGXYxfbGxI7lzpZNpxRMfNkzPyNMsK6obFvk07vujJBf1FJfCFZUo3wekX+1KTP9rUmGPuorDtCcMcNRWr/KabbgrGgLQW+10qCUMX9IV53HHHHaV21dDt5GPJwhHSbNGrLAuTLPe5nIlQgvcrejgN0c8a+Wj79QZTDYOA6NcGvwH9Wyj2XogCp9Lv6qhx67U8THqn9yjNVXSgLYgWl8YFBCnQ3Xff7UvJ8DWPfBQhdBCkN4jmAAlfnHQpqg9dDgV5SA9ffPFF1b1796K+mvDlAUX4ESNG+BaPxcaGAqMrXdBjm1d4zIekDFIhzGO//fZTkGLCRQqsTLfffnuzeuJ0FtEKkvSBLyxTMVMYdoWwU3F09dVXq9NOO03tsssuiRwjw1r33HPP9SWssPpJQqaUsEuXLiUbRMDS04xoAMMgxOYjpUfAleBBMp3UH2TUaFntc1T/LE+PACV46TGrtxam+yysDT5I00rvNCaVflfrcRrlKqpamSzVleBFn/XJcNtss41vmQELS9HHUh988IHC0V3z5s19q1cc25X6A4lbDZjK559/3rfmBFP1zjvvBNXxQoKZP+aAf2nIfMilaZdVXTCMwl5n1V1sPzhaNY/PES9XjFAi/duBUTatRoEVjmTxUMAVx8owQQfji2P8UmJ1mha3pR7Pwr3Ksccea60dHwUIeUZKjwAs3fHhoylJ5BldN+qaxT5H9c3y0hAwHZDTTUppGOa91fvvv28tARbv5VKl3tXlzitv7YcMGaLwL2taDPK8rDtlf7WBAPT7xOIpmAxe5mCcYere1IQXDBhy/XODHmVSP4nmXI844ghf91GXQeoYprug7/PatAhktc9ZzBquhqBzqwlRV4pJ+XXdervi1EG7T4LPLPgLJTUOAnjutm/f3hfSYNXQHYersKSuzBoHqfpaKcUe9bWf1mpw3GYe1U6ePFntueeeKszvntWwAhkcu2vmDt2XIsE7/fTTLeYOx7Jk7iqwWWV0mcU+lzG81RRK5fid6X+NytwBFPP0Iu3JhwUqM7lEAP7vcAKn6ZRTTiFzp8Go4ysZvDreXCwNunVwlqhp7Nixvg6hGwVC36/UFS9+TQhnliRGsa6PY1nxN2gxc9CNhHNtUm0hUM4+19ZK6ms2JoPHI9r62ttiq8GpDU4+NCGEKE4+SPWPABm8Ot9jGGXApYj4MgxW+sILLyjEbEVUDjBPTUGm4n1SJX5I/OCOBdE5ECJOU+fOndUjjzySKJSabsNr0yBQyj43zcwaexQyeI27/wh1pZX44XYLR/Rp3Hs1LnL5XzkZvPzvYdEViNsZ/2gTYnpYToHmzp2rjjrqKNWmTRt16623+mWV/A/Hw5qgmKsJRjthNHHiRAULbVj16rB18FOII1kwETxmCkOt+mVp97n6M67/GSA0o/l3Rgle/e+5uUKc4sDAD8Zo4jqoZO8FZp9M5wMBMnj52KdMZgnnte+9954ff1AzSLCSrfRxLZTdTRN9KPuCpk2bptZbb71QJ8yQLGrGTnwcKvHLqMA84GiBX5+Z/Bwy76SUfc58EuywAAE4btf6r3BvAWt4UuMggI/6KVOm+O7MGmfVXCkQiHWTQojqDwEJQeb7xIMPu8cff9yPCoLIF5UkRPAwCUcEcL0ybNgwn/FDdAyXttpqKz+Kx3bbbackZq1y/fu49ZmvPgKl7HP1Z13/MzCPZ/l3VP/7zRUSAY0A3aRoJHitKAISRNn3pegOAlcpcOcCyQIp/whwn2tvD6HuoH2eIdRk2AdV7c1aKYRpgk9FnDDgxKFnz55qpZVWCp3qrFmzlET5UZ9//rnCbxDuP8jMhkLFwgZCgEe0DbTZ1VyqBDu3joZatGihoPwLf3hk7qq5M9mOzX3OFs8sejMleHnQv0PkHeiLQT+4V69eauDAgb7PTOjkmq4+gA2c4O+xxx6+Vf6uu+6qDj30UJ8RbNu2rR8rPQv82AcRyCsCPKLN687lbN4777yzmjFjhv+VDUfLUPqF0QSpvhDgPtfefuaJwYO+IEJDIhyhS1988YWSuNfqzDPP9G/dd999CmESYUTiEtYMnWOERNQ6v24d5olAvSNACV6973ANrQ/SAxyzwO0Jmbsa2piMp8J9zhjQMrvLS5gyWPpCYqeZu5YtW6q1117bWj1cPoFuuOEGP/60Zu7atWtXYHwF1yCoRyICjYoAGbxG3XmumwgQgYZAIC8SPBzFakfZxxxzjEIc8pdfftnaIzCro0ePVoMGDVI4yu3atat68803FeKszpw5U4HRMykv+obmnJkmAlkhQAYvKyTZDxEgAkSgBhHIC4M3dOhQ35hi8ODBvn4u3CHBuAJ+PDXBxQtCMMLtS7du3dSYMWNUx44d/dtwB9K7d29d1b/CUINEBBoVAergNerOc91EgAg0BAJ5YfCgLzd9+nQFHV1N0Nv98ccfddb344kMrIIR5cb16ecabOGYl0QEGhUBMniNuvNcNxEgAg2BQF4YPGwG/HSaNGnSJDPrpxF+8Y477ihg7nDz008/teonNbAARqa+HuJ3d+jQweqLGSKQNwTI4OVtxzhfIkAEiEAKBPJiZBG2JFcHD3XOOusste6664ZVVy5DaIZFDG3wS+H48eOtSA8wBCODF4cY7+UBAerg5WGXOEciQASIQIkI5EmC5y7xhRdesIrgqPmEE06wynQG0XHgF8+kLbbYwsxGpk1GcvHFF/eNNyIr8wYRyAkCZPByslGcJhEgAkSgFARMBk/HoC6ln6Zus3DhQjVhwgRr2P79+1tGF+bNcePGBTF3UQ4pX1IdvFdeeSXoaoMNNrD0AIMbTBCBnCHAI9qcbRinSwSIABFIg4DJ4OUhkoVeG0KsgckzqV+/fmbWSo8dO9bKw+dmUrrkkkv8uNioD2tcEhGoBwTI4NXDLnINRIAIEIEQBOArLq86eNonnl7WRhttFKsX5zJ422yzjW5a9IrYtSQiUG8IkMGrtx3leogAESACvyCA0F/azQhciLhuRWoZKFf/Lk4iN2fOHDV16lRrOcUYPPjSW7BggZo/f77/D2n43ltrrbWsfpghAnlFgAxeXneO8yYCRIAIFEHAlN6tuOKKRWrX1m2XwYszmHD172CMseqqq8YuCL70XKvbtm3bqg8//DC2HW8SgbwgQCOLvOwU50kEiAARSIlAXvXvpk2bpmbPnm2tNo7Bc49zEeWiGO29996qU6dOVrXNNtvMyjNDBPKMABm8PO8e504EiAARiEEgrwyeK71r1aqVWnPNNSNX+uqrr1r3XGYQETFcOu2009Q999xjFW+55ZZWnhkikGcEyODlefc4dyJABIhADAL1wuB17do1ZpVKffzxx9Z9HNFquvHGG33m8NJLL9VFwRX6dyaRwTPRYDrvCJDBy/sOcv5EgAgQgQgE6oXBK8Z4wcmxSV9++aWCBfFll12mBg0a5PvHu/LKK80qfvrNN98MypZZZhnVuXPnIM8EEcg7AmTw8r6DnD8RIAINgQCsYadMmZJqraaRRV584H399depI1K4BhWHHXaYb2SBqBdg9Nq0aaOeeeaZAuxMB8ddunRRsDQmEYF6QYAMXr3sJNdBBIhA3SLw0EMPKURYgITJDccVt+g8SvBgMAEXJpqWWGIJBYvXONppp52s23APAykeCD7unn/++VD3Jy+99FLQrpiUMKjIBBHICQJk8HKyUZwmESACjYcApE7QP+vTp496++23fZ92w4cPTwxEHhm8Dz74wFofGNtmzZpZZW5mxIgRBUwgfP6ddNJJCgzjGmus4TbxHUCbvvPI4BVAxIKcI0A/eDnfQE6fCBCB+kMAYbpOOeUUNWbMmILFPfzwwwqSpyQMSR4ZvMGDByv8S0Mrr7yyz8gBN0jvwBCuv/76sTFlXUlhEjzTzIl1iUC1ESCDV+0d4PhEgAgQgV8QgJPdYcOGqQcffNA6pnQBQh0cOxajPDJ4xdYUdR9RKFz3KFF1UW76zmvdurVabbXV4qrzHhHIHQI8os3dlnHCRIAI1CsCTz/9tBo5cqTP3CHyxDnnnKMQpWGxxRazloyyUaNGWWVhmTwaWYStoxJlpoFFGsawEnNhn0SgEgiQwasEquyTCBABIlACAocccohCNIUhQ4Yo6KKdeuqpauutt1b9+/cv6A1HuDrObMHNXwoaSYIXhUFU+eTJk4Nbm2++eZD+5ptvgjQTRCDPCJDBy/Puce5EgAjUFQJw04GoDJdccolaaaWVgrVBkue68IAPt9tuuy2oE5YwGbzmzZuHVWnIsu+++07NmTMnWHv79u39NEKkrbfeeuq4444L7jFBBPKKABm8vO4c500EiEDDIIAwXUcffXTBes844wz1/fffF5TrApPBy4sfPD33Sl5/+OEHq3u4obn55pvVVlttpWbNmqXeffdd6z4zRCCPCCwm/oZ+dTiUxxVwzkSACBCBBkAA0RratWun5s6da632wgsvVEOHDrXKkMFRI/T4QJD+LVy40E/zv58RWGuttdT06dML4Ojbt6+66667CiSmBRVZQARqHAFK8Gp8gzg9IkAEiAAQwJHtySefXADGBRdcoExJna7w7bff6mTA6AUFTKhrr71WwVeephYtWqirrrpKPfDAA2TuNCi85hoBSvByvX2cPBEgAo2EwIIFCxT0xT799FNr2SeeeKK6+OKLrTLo6MEXHGidddbhsaOFzs8ZMMavv/667y8PWCEeLYkI1AsClODVy05yHUSACNQ9Assuu6w666yzCtZ59dVXq5kzZ1rlplSP+ncWNEEGuPTs2VNtsskmZO4CVJioFwTI4NXLTnIdRIAINAQCcKXSqVMna60wtDj99NOtMjJ4FhzMEIGGQ4AMXsNtORdMBIhAnhFYYoklFPTuXLr99tuVGVuVDJ6LEPNEoLEQIIPXWPvN1RIBIlAHCOy+++6qR48e1kp++uknywiDDJ4FDzNEoOEQIIPXcFvOBRMBIlAPCFx00UUFyxg9enQQo5ZhygrgYQERaCgEyOA11HZzsUSACNQLAl27dlXw2ebSsGHD/CJK8FxkmCcCjYUAGbzG2m+ulggQgTpC4LzzzlNLLrmktaKXX35ZITIDGTwLFmaIQMMhQAav4bacCyYCRKBeEIBPvIEDBxYsZ/jw4Wr27NlBOd2kBFAwQQQaBgE6Om6YreZCiQARqEcEvvjiC7X22murefPmRS5v7Nixvr+3yAq8QQSIQN0hQAle3W0pF0QEiEAjIbDKKqsoRLKII0rw4tDhPSJQnwhQglef+8pVEQEi0EAIQHoHKR6keWH08ccfqzZt2oTdYhkRIAJ1igAleHW6sVwWESACjYPA8ssvr84444zIBTdv3jzyHm8QASJQnwhQglef+8pVEQEi0GAI/PDDD6pjx45q2rRp1sqXXnpptXDhQquMGSJABOofAUrw6n+PuUIiQAQaAAG4Szn//PMLVrriiisWlLGACBCB+keADF797zFXSASIQIMg0KdPHwUHyCbRwMJEg2ki0DgIkMFrnL3mSokAEWgABNwQZmTwGmDTuUQiEIIAGbwQUFhEBIgAEcgrAj169FC9e/cOpk8GL4CCCSLQUAiQwWuo7eZiiQARaAQEoIu37LLLKhhYtGjRohGWzDUSASLgIEArWgcQZokAESACRIAIEAEikHcEKMHL+w5y/kSACBABIkAEiAARcBAgg+cAwiwRIAJEgAgQASJABPKOABm8vO8g508EiAARIAJEgAgQAQcBMngOIMwSASJABIgAESACRCDvCJDBy/sOcv5EgAgQASJABIgAEXAQIIPnAMIsESACRIAIEAEiQATyjsD/A0NPOpz5TAA+AAAAAElFTkSuQmCC;" vertex="1" parent="WhOPVjGFQnV452_eeHkL-13">
          <mxGeometry x="31.38" y="20" width="197.5" height="50" as="geometry" />
        </mxCell>
        <mxCell id="WhOPVjGFQnV452_eeHkL-18" value="Is the ni value for current 0?" style="rhombus;whiteSpace=wrap;html=1;fontColor=#000000;fillColor=#ffffc0;strokeColor=#ff0000;" vertex="1" parent="1">
          <mxGeometry x="340" y="250" width="120" height="100" as="geometry" />
        </mxCell>
        <mxCell id="WhOPVjGFQnV452_eeHkL-19" value="no" style="edgeStyle=orthogonalEdgeStyle;html=1;align=left;verticalAlign=bottom;endArrow=open;endSize=8;strokeColor=#ff0000;rounded=0;" edge="1" source="WhOPVjGFQnV452_eeHkL-18" parent="1" target="WhOPVjGFQnV452_eeHkL-23">
          <mxGeometry x="-0.2727" y="10" relative="1" as="geometry">
            <mxPoint x="530" y="320" as="targetPoint" />
            <mxPoint as="offset" />
          </mxGeometry>
        </mxCell>
        <mxCell id="WhOPVjGFQnV452_eeHkL-20" value="yes" style="edgeStyle=orthogonalEdgeStyle;html=1;align=left;verticalAlign=top;endArrow=open;endSize=8;strokeColor=#ff0000;rounded=0;" edge="1" source="WhOPVjGFQnV452_eeHkL-18" parent="1" target="WhOPVjGFQnV452_eeHkL-21">
          <mxGeometry x="-0.0139" y="-9" relative="1" as="geometry">
            <mxPoint x="370" y="200" as="targetPoint" />
            <mxPoint x="1" as="offset" />
          </mxGeometry>
        </mxCell>
        <mxCell id="WhOPVjGFQnV452_eeHkL-21" value="Rollout" style="rounded=1;whiteSpace=wrap;html=1;arcSize=40;fontColor=#000000;fillColor=#ffffc0;strokeColor=#ff0000;" vertex="1" parent="1">
          <mxGeometry x="340" y="160" width="120" height="40" as="geometry" />
        </mxCell>
        <mxCell id="WhOPVjGFQnV452_eeHkL-23" value="for each available action from current add a state to the tree" style="rounded=1;whiteSpace=wrap;html=1;arcSize=40;fontColor=#000000;fillColor=#ffffc0;strokeColor=#ff0000;" vertex="1" parent="1">
          <mxGeometry x="320" y="405" width="160" height="70" as="geometry" />
        </mxCell>
        <mxCell id="WhOPVjGFQnV452_eeHkL-24" value="" style="edgeStyle=orthogonalEdgeStyle;html=1;verticalAlign=bottom;endArrow=open;endSize=8;strokeColor=#ff0000;rounded=0;" edge="1" source="WhOPVjGFQnV452_eeHkL-23" parent="1" target="WhOPVjGFQnV452_eeHkL-25">
          <mxGeometry relative="1" as="geometry">
            <mxPoint x="520" y="520" as="targetPoint" />
          </mxGeometry>
        </mxCell>
        <mxCell id="WhOPVjGFQnV452_eeHkL-25" value="Set current to the first new child node" style="rounded=1;whiteSpace=wrap;html=1;arcSize=40;fontColor=#000000;fillColor=#ffffc0;strokeColor=#ff0000;" vertex="1" parent="1">
          <mxGeometry x="340" y="510" width="120" height="40" as="geometry" />
        </mxCell>
        <mxCell id="WhOPVjGFQnV452_eeHkL-26" value="" style="edgeStyle=orthogonalEdgeStyle;html=1;verticalAlign=bottom;endArrow=open;endSize=8;strokeColor=#ff0000;rounded=0;" edge="1" source="WhOPVjGFQnV452_eeHkL-25" parent="1" target="WhOPVjGFQnV452_eeHkL-27">
          <mxGeometry relative="1" as="geometry">
            <mxPoint x="380" y="620" as="targetPoint" />
          </mxGeometry>
        </mxCell>
        <mxCell id="WhOPVjGFQnV452_eeHkL-27" value="Rollout" style="rounded=1;whiteSpace=wrap;html=1;arcSize=40;fontColor=#000000;fillColor=#ffffc0;strokeColor=#ff0000;" vertex="1" parent="1">
          <mxGeometry x="340" y="580" width="120" height="40" as="geometry" />
        </mxCell>
      </root>
    </mxGraphModel>
  </diagram>
</mxfile>
